REM DIRINDEX 1\3,1\2\4,1\2\5,1\2\6
REM DIRNAME cjc137,folder01,folder02,folder03,folder04,folder05
TITLE ""
FILE "052.mp3" MP3
  TRACK 01 AUDIO
    TITLE "0:"
    INDEX 01 00:00:00
  TRACK 02 AUDIO
    TITLE "4:cjc137_2140"
    INDEX 01 00:00:05
  TRACK 03 AUDIO
    TITLE "0:"
    INDEX 01 00:01:09
  TRACK 04 AUDIO
    TITLE "6:cjc137_2141"
    INDEX 01 00:01:19
  TRACK 05 AUDIO
    TITLE "0:"
    INDEX 01 00:02:26
  TRACK 06 AUDIO
    TITLE "5:cjc137_2142"
    INDEX 01 00:02:40
  TRACK 07 AUDIO
    TITLE "0:"
    INDEX 01 00:03:41
  TRACK 08 AUDIO
    TITLE "4:cjc137_2143"
    INDEX 01 00:04:54
  TRACK 09 AUDIO
    TITLE "0:"
    INDEX 01 00:05:65
  TRACK 10 AUDIO
    TITLE "6:cjc137_2144"
    INDEX 01 00:05:73
  TRACK 11 AUDIO
    TITLE "0:"
    INDEX 01 00:07:17
  TRACK 12 AUDIO
    TITLE "5:cjc137_2145"
    INDEX 01 00:07:25
  TRACK 13 AUDIO
    TITLE "0:"
    INDEX 01 00:08:36
  TRACK 14 AUDIO
    TITLE "4:cjc137_2146"
    INDEX 01 00:09:45
  TRACK 15 AUDIO
    TITLE "0:"
    INDEX 01 00:10:59
  TRACK 16 AUDIO
    TITLE "6:cjc137_2147"
    INDEX 01 00:10:70
  TRACK 17 AUDIO
    TITLE "0:"
    INDEX 01 00:12:26
  TRACK 18 AUDIO
    TITLE "5:cjc137_2148"
    INDEX 01 00:12:32
  TRACK 19 AUDIO
    TITLE "0:"
    INDEX 01 00:13:47
  TRACK 20 AUDIO
    TITLE "4:cjc137_2149"
    INDEX 01 00:14:58
  TRACK 21 AUDIO
    TITLE "0:"
    INDEX 01 00:15:62
  TRACK 22 AUDIO
    TITLE "6:cjc137_2150"
    INDEX 01 00:15:72
  TRACK 23 AUDIO
    TITLE "0:"
    INDEX 01 00:17:14
  TRACK 24 AUDIO
    TITLE "5:cjc137_2151"
    INDEX 01 00:17:25
  TRACK 25 AUDIO
    TITLE "0:"
    INDEX 01 00:18:27
  TRACK 26 AUDIO
    TITLE "4:cjc137_2152"
    INDEX 01 00:19:36
  TRACK 27 AUDIO
    TITLE "0:"
    INDEX 01 00:20:37
  TRACK 28 AUDIO
    TITLE "6:cjc137_2153"
    INDEX 01 00:20:41
  TRACK 29 AUDIO
    TITLE "0:"
    INDEX 01 00:21:51
  TRACK 30 AUDIO
    TITLE "5:cjc137_2154"
    INDEX 01 00:21:55
  TRACK 31 AUDIO
    TITLE "0:"
    INDEX 01 00:22:56
  TRACK 32 AUDIO
    TITLE "4:cjc137_2155"
    INDEX 01 00:23:63
  TRACK 33 AUDIO
    TITLE "0:"
    INDEX 01 00:24:65
  TRACK 34 AUDIO
    TITLE "6:cjc137_2156"
    INDEX 01 00:24:71
  TRACK 35 AUDIO
    TITLE "0:"
    INDEX 01 00:26:03
  TRACK 36 AUDIO
    TITLE "5:cjc137_2157"
    INDEX 01 00:26:11
  TRACK 37 AUDIO
    TITLE "0:"
    INDEX 01 00:27:12
  TRACK 38 AUDIO
    TITLE "4:cjc137_2158"
    INDEX 01 00:28:21
  TRACK 39 AUDIO
    TITLE "0:"
    INDEX 01 00:29:27
  TRACK 40 AUDIO
    TITLE "6:cjc137_2159"
    INDEX 01 00:29:36
  TRACK 41 AUDIO
    TITLE "0:"
    INDEX 01 00:30:48
  TRACK 42 AUDIO
    TITLE "5:cjc137_2160"
    INDEX 01 00:30:55
  TRACK 43 AUDIO
    TITLE "0:"
    INDEX 01 00:31:63
  TRACK 44 AUDIO
    TITLE "4:cjc137_2161"
    INDEX 01 00:32:74
  TRACK 45 AUDIO
    TITLE "0:"
    INDEX 01 00:34:06
  TRACK 46 AUDIO
    TITLE "6:cjc137_2162"
    INDEX 01 00:34:14
  TRACK 47 AUDIO
    TITLE "0:"
    INDEX 01 00:35:14
  TRACK 48 AUDIO
    TITLE "5:cjc137_2163"
    INDEX 01 00:35:19
  TRACK 49 AUDIO
    TITLE "0:"
    INDEX 01 00:36:27
  TRACK 50 AUDIO
    TITLE "4:cjc137_2164"
    INDEX 01 00:37:34
  TRACK 51 AUDIO
    TITLE "0:"
    INDEX 01 00:38:35
  TRACK 52 AUDIO
    TITLE "6:cjc137_2165"
    INDEX 01 00:38:47
  TRACK 53 AUDIO
    TITLE "0:"
    INDEX 01 00:39:51
  TRACK 54 AUDIO
    TITLE "5:cjc137_2166"
    INDEX 01 00:39:56
  TRACK 55 AUDIO
    TITLE "0:"
    INDEX 01 00:40:56
  TRACK 56 AUDIO
    TITLE "4:cjc137_2167"
    INDEX 01 00:41:67
  TRACK 57 AUDIO
    TITLE "0:"
    INDEX 01 00:42:74
  TRACK 58 AUDIO
    TITLE "6:cjc137_2168"
    INDEX 01 00:43:09
  TRACK 59 AUDIO
    TITLE "0:"
    INDEX 01 00:44:30
  TRACK 60 AUDIO
    TITLE "5:cjc137_2169"
    INDEX 01 00:44:36
  TRACK 61 AUDIO
    TITLE "0:"
    INDEX 01 00:45:45
  TRACK 62 AUDIO
    TITLE "4:cjc137_2170"
    INDEX 01 00:46:53
  TRACK 63 AUDIO
    TITLE "0:"
    INDEX 01 00:47:74
  TRACK 64 AUDIO
    TITLE "6:cjc137_2171"
    INDEX 01 00:48:06
  TRACK 65 AUDIO
    TITLE "0:"
    INDEX 01 00:49:08
  TRACK 66 AUDIO
    TITLE "5:cjc137_2172"
    INDEX 01 00:49:18
  TRACK 67 AUDIO
    TITLE "0:"
    INDEX 01 00:50:39
  TRACK 68 AUDIO
    TITLE "4:cjc137_2173"
    INDEX 01 00:51:48
  TRACK 69 AUDIO
    TITLE "0:"
    INDEX 01 00:52:51
  TRACK 70 AUDIO
    TITLE "6:cjc137_2174"
    INDEX 01 00:52:63
  TRACK 71 AUDIO
    TITLE "0:"
    INDEX 01 00:54:05
  TRACK 72 AUDIO
    TITLE "5:cjc137_2175"
    INDEX 01 00:54:15
  TRACK 73 AUDIO
    TITLE "0:"
    INDEX 01 00:55:20
  TRACK 74 AUDIO
    TITLE "4:cjc137_2176"
    INDEX 01 00:56:31
  TRACK 75 AUDIO
    TITLE "0:"
    INDEX 01 00:57:45
  TRACK 76 AUDIO
    TITLE "6:cjc137_2177"
    INDEX 01 00:57:50
  TRACK 77 AUDIO
    TITLE "0:"
    INDEX 01 00:58:62
  TRACK 78 AUDIO
    TITLE "5:cjc137_2178"
    INDEX 01 00:58:69
  TRACK 79 AUDIO
    TITLE "0:"
    INDEX 01 01:00:08
  TRACK 80 AUDIO
    TITLE "4:cjc137_2179"
    INDEX 01 01:01:15
  TRACK 81 AUDIO
    TITLE "0:"
    INDEX 01 01:02:20
  TRACK 82 AUDIO
    TITLE "6:cjc137_2180"
    INDEX 01 01:02:28
  TRACK 83 AUDIO
    TITLE "0:"
    INDEX 01 01:03:29
  TRACK 84 AUDIO
    TITLE "5:cjc137_2181"
    INDEX 01 01:03:33
  TRACK 85 AUDIO
    TITLE "0:"
    INDEX 01 01:04:39
